<?xml version="1.0" encoding="UTF-8" standalone="no"?>
<svg width="127px" height="179px" viewBox="0 0 127 179" version="1.1" xmlns="http://www.w3.org/2000/svg" xmlns:xlink="http://www.w3.org/1999/xlink">
    <!-- Generator: Sketch 3.6.1 (26313) - http://www.bohemiancoding.com/sketch -->
    <title>icon park + active</title>
    <desc>Created with Sketch.</desc>
    <defs></defs>
    <g id="Page-1" stroke="none" stroke-width="1" fill="none" fill-rule="evenodd">
        <g id="Artboard-1" fill="#4990E2">
            <g id="icon-park-+-active">
                <g id="Group-Copy">
                    <path d="M53.7846213,0 C24.0448895,0 0,24.0934651 0,54.1046233 C0,61.9244321 1.68736067,69.1102024 4.42932175,75.8732803 L50.8317401,166.118101 C52.0972606,168.654255 55.471982,168.654255 56.7375025,166.118101 L103.139921,75.8732803 C106.092802,69.3215486 107.569243,61.9244321 107.569243,54.1046233 C107.569243,24.0934651 83.5243531,0 53.7846213,0 L53.7846213,0 Z M53.7846213,97.4305912 C29.7397318,97.4305912 10.124164,77.775396 10.124164,53.6819309 C10.124164,29.5884659 29.7397318,9.93327068 53.7846213,9.93327068 C77.8295108,9.93327068 97.4450786,29.5884659 97.4450786,53.6819309 C97.4450786,77.775396 77.8295108,97.4305912 53.7846213,97.4305912 L53.7846213,97.4305912 Z" id="Shape"></path>
                    <path d="M65.639203,25.1837524 L42.4379938,25.1837524 C36.9540716,25.1837524 32.3138298,29.6220223 32.3138298,35.3283693 L32.3138298,80.1337604 C32.3138298,81.4018376 33.3684302,82.4585685 34.6339507,82.4585685 L39.2741925,82.4585685 C40.539713,82.4585685 41.5943135,81.4018376 41.5943135,80.1337604 L41.5943135,62.1693347 L65.4282829,62.1693347 C70.9122051,62.1693347 75.5524469,57.7310649 75.5524469,52.0247179 L75.5524469,35.1170231 C75.763367,29.6220223 71.1231252,25.1837524 65.639203,25.1837524 L65.639203,25.1837524 Z M66.4828833,52.2360641 C66.4828833,52.6587564 66.0610432,53.0814488 65.639203,53.0814488 L41.8052335,53.0814488 L41.8052335,36.8077926 L41.8052335,35.3283693 C41.8052335,34.9056769 42.2270737,34.4829845 42.6489139,34.4829845 L65.8501231,34.4829845 C66.2719632,34.4829845 66.6938034,34.9056769 66.6938034,35.3283693 L66.6938034,52.2360641 L66.4828833,52.2360641 Z" id="Shape"></path>
                </g>
                <text id="+" font-family="NotoSans-Bold, Noto Sans" font-size="105.408031" font-weight="bold">
                    <tspan x="71.71875" y="189.090909">+</tspan>
                </text>
            </g>
        </g>
    </g>
</svg>